<?xml version="1.0" encoding="UTF-8" standalone="no"?>
<!DOCTYPE svg PUBLIC "-//W3C//DTD SVG 1.1//EN"
 "http://www.w3.org/Graphics/SVG/1.1/DTD/svg11.dtd">
<!-- Generated by graphviz version 2.38.0 (20140413.2041)
 -->
<!-- Title: fullGraph Pages: 1 -->
<svg width="1954pt" height="1462pt"
 viewBox="0.00 0.00 1953.90 1462.00" xmlns="http://www.w3.org/2000/svg" xmlns:xlink="http://www.w3.org/1999/xlink">
<g id="graph0" class="graph" transform="scale(1 1) rotate(0) translate(4 1458)">
<title>fullGraph</title>
<polygon fill="white" stroke="none" points="-4,4 -4,-1458 1949.9,-1458 1949.9,4 -4,4"/>
<g id="clust1" class="cluster"><title>cluster_expressionGraph</title>
<polygon fill="none" stroke="black" points="107,-210 107,-1446 1485,-1446 1485,-210 107,-210"/>
<text text-anchor="middle" x="796" y="-1430.8" font-family="Times New Roman,serif" font-size="14.00">expressionGraph</text>
</g>
<!-- Node_0xc0003b42a0 -->
<g id="node1" class="node"><title>Node_0xc0003b42a0</title>
<polygon fill="lightblue" stroke="none" points="869.5,-1348 869.5,-1411 1468.5,-1411 1468.5,-1348 869.5,-1348"/>
<polygon fill="none" stroke="#ff0000" points="870,-1389.5 870,-1410.5 1025,-1410.5 1025,-1389.5 870,-1389.5"/>
<text text-anchor="start" x="943" y="-1396.3" font-family="monospace" font-size="14.00">3</text>
<polygon fill="none" stroke="#ff0000" points="1025,-1389.5 1025,-1410.5 1469,-1410.5 1469,-1389.5 1025,-1389.5"/>
<text text-anchor="start" x="1028" y="-1396.3" font-family="monospace" font-size="14.00">read coefficients :: Vector float64 into &lt;nil&gt; :: NIL</text>
<polygon fill="none" stroke="#ff0000" points="870,-1368.5 870,-1389.5 1025,-1389.5 1025,-1368.5 870,-1368.5"/>
<text text-anchor="start" x="873" y="-1375.3" font-family="monospace" font-size="14.00">Overwrites Input 0</text>
<polygon fill="none" stroke="#ff0000" points="1025,-1368.5 1025,-1389.5 1469,-1389.5 1469,-1368.5 1025,-1368.5"/>
<text text-anchor="start" x="1197" y="-1375.3" font-family="monospace" font-size="14.00">Data On: CPU</text>
<polygon fill="none" stroke="#ff0000" points="870,-1347.5 870,-1368.5 1025,-1368.5 1025,-1347.5 870,-1347.5"/>
<text text-anchor="start" x="926.5" y="-1354.3" font-family="monospace" font-size="14.00">Value</text>
<polygon fill="none" stroke="#ff0000" points="1025,-1347.5 1025,-1368.5 1469,-1368.5 1469,-1347.5 1025,-1347.5"/>
<text text-anchor="start" x="1213.5" y="-1354.3" font-family="monospace" font-size="14.00">%!s(NIL)</text>
</g>
<!-- Node_0xc0003b41c0 -->
<g id="node2" class="node"><title>Node_0xc0003b41c0</title>
<polygon fill="lightyellow" stroke="none" points="960.5,-4 960.5,-103 1377.5,-103 1377.5,-4 960.5,-4"/>
<polygon fill="none" stroke="#00ff00" points="961,-81.5 961,-102.5 1124,-102.5 1124,-81.5 961,-81.5"/>
<text text-anchor="start" x="1038" y="-88.3" font-family="monospace" font-size="14.00">2</text>
<polygon fill="none" stroke="#00ff00" points="1124,-81.5 1124,-102.5 1378,-102.5 1378,-81.5 1124,-81.5"/>
<text text-anchor="start" x="1127" y="-88.3" font-family="monospace" font-size="14.00">coefficients :: Vector float64</text>
<polygon fill="none" stroke="#00ff00" points="961,-60.5 961,-81.5 1124,-81.5 1124,-60.5 961,-60.5"/>
<text text-anchor="start" x="1021.5" y="-67.3" font-family="monospace" font-size="14.00">Shape</text>
<polygon fill="none" stroke="#00ff00" points="1124,-60.5 1124,-81.5 1378,-81.5 1378,-60.5 1124,-60.5"/>
<text text-anchor="start" x="1238.5" y="-67.3" font-family="monospace" font-size="14.00">(1)</text>
<polygon fill="none" stroke="#00ff00" points="961,-39.5 961,-60.5 1124,-60.5 1124,-39.5 961,-39.5"/>
<text text-anchor="start" x="964" y="-46.3" font-family="monospace" font-size="14.00">Overwrites Input &#45;1</text>
<polygon fill="none" stroke="#00ff00" points="1124,-39.5 1124,-60.5 1378,-60.5 1378,-39.5 1124,-39.5"/>
<text text-anchor="start" x="1201" y="-46.3" font-family="monospace" font-size="14.00">Data On: CPU</text>
<polygon fill="none" stroke="#00ff00" points="961,-3.5 961,-39.5 1124,-39.5 1124,-3.5 961,-3.5"/>
<text text-anchor="start" x="1021.5" y="-17.8" font-family="monospace" font-size="14.00">Value</text>
<polygon fill="none" stroke="#00ff00" points="1124,-3.5 1124,-39.5 1378,-39.5 1378,-3.5 1124,-3.5"/>
<text text-anchor="start" x="1193" y="-25.3" font-family="monospace" font-size="14.00">Vector (1) [1]</text>
<text text-anchor="start" x="1222" y="-10.3" font-family="monospace" font-size="14.00">[0.278]</text>
</g>
<!-- Node_0xc0003b42a0&#45;&gt;Node_0xc0003b41c0 -->
<g id="edge1" class="edge"><title>Node_0xc0003b42a0:Node_0xc0003b42a0:anchor&#45;&gt;Node_0xc0003b41c0:Node_0xc0003b41c0:anchor</title>
<path fill="none" stroke="black" d="M1169,-1343.99C1169,-1269.79 1169,-1089.56 1169,-938.5 1169,-938.5 1169,-938.5 1169,-494.5 1169,-360.169 1169,-202.769 1169,-117.379"/>
<polygon fill="black" stroke="black" points="1172.5,-117.329 1169,-107.329 1165.5,-117.329 1172.5,-117.329"/>
<text text-anchor="middle" x="1161.5" y="-1332.79" font-family="Times New Roman,serif" font-size="14.00"> 0 </text>
</g>
<!-- Node_0xc0003b4380 -->
<g id="node3" class="node"><title>Node_0xc0003b4380</title>
<polygon fill="none" stroke="black" points="431,-305.5 431,-326.5 594,-326.5 594,-305.5 431,-305.5"/>
<text text-anchor="start" x="508" y="-312.3" font-family="monospace" font-size="14.00">4</text>
<polygon fill="none" stroke="black" points="594,-305.5 594,-326.5 922,-326.5 922,-305.5 594,-305.5"/>
<text text-anchor="start" x="630" y="-312.3" font-family="monospace" font-size="14.00">A × b(%1, %2) :: Vector float64</text>
<polygon fill="none" stroke="black" points="431,-284.5 431,-305.5 594,-305.5 594,-284.5 431,-284.5"/>
<text text-anchor="start" x="504" y="-291.3" font-family="monospace" font-size="14.00">Op</text>
<polygon fill="none" stroke="black" points="594,-284.5 594,-305.5 922,-305.5 922,-284.5 594,-284.5"/>
<text text-anchor="start" x="597" y="-291.3" font-family="monospace" font-size="14.00">A × b :: Matrix a → Vector a → Vector a</text>
<polygon fill="none" stroke="black" points="431,-263.5 431,-284.5 594,-284.5 594,-263.5 431,-263.5"/>
<text text-anchor="start" x="491.5" y="-270.3" font-family="monospace" font-size="14.00">Shape</text>
<polygon fill="none" stroke="black" points="594,-263.5 594,-284.5 922,-284.5 922,-263.5 594,-263.5"/>
<text text-anchor="start" x="733" y="-270.3" font-family="monospace" font-size="14.00">(3649)</text>
<polygon fill="none" stroke="black" points="431,-242.5 431,-263.5 594,-263.5 594,-242.5 431,-242.5"/>
<text text-anchor="start" x="434" y="-249.3" font-family="monospace" font-size="14.00">Overwrites Input &#45;1</text>
<polygon fill="none" stroke="black" points="594,-242.5 594,-263.5 922,-263.5 922,-242.5 594,-242.5"/>
<text text-anchor="start" x="708" y="-249.3" font-family="monospace" font-size="14.00">Data On: CPU</text>
<polygon fill="none" stroke="black" points="431,-221.5 431,-242.5 594,-242.5 594,-221.5 431,-221.5"/>
<text text-anchor="start" x="491.5" y="-228.3" font-family="monospace" font-size="14.00">Value</text>
<polygon fill="none" stroke="black" points="594,-221.5 594,-242.5 922,-242.5 922,-221.5 594,-221.5"/>
<text text-anchor="start" x="724.5" y="-228.3" font-family="monospace" font-size="14.00">%!s(NIL)</text>
</g>
<!-- Node_0xc0003b4380&#45;&gt;Node_0xc0003b41c0 -->
<g id="edge3" class="edge"><title>Node_0xc0003b4380:Node_0xc0003b4380:anchor&#45;&gt;Node_0xc0003b41c0:Node_0xc0003b41c0:anchor</title>
<path fill="none" stroke="black" d="M801.042,-217.954C874.494,-185.325 967.129,-144.175 1041.08,-111.327"/>
<polygon fill="black" stroke="black" points="1042.74,-114.417 1050.46,-107.159 1039.9,-108.02 1042.74,-114.417"/>
<text text-anchor="middle" x="793.542" y="-206.754" font-family="Times New Roman,serif" font-size="14.00"> 1 </text>
</g>
<!-- Node_0xc0003b40e0 -->
<g id="node4" class="node"><title>Node_0xc0003b40e0</title>
<polygon fill="lightyellow" stroke="none" points="480,-4 480,-103 872,-103 872,-4 480,-4"/>
<polygon fill="none" stroke="#00ff00" points="480,-81.5 480,-102.5 643,-102.5 643,-81.5 480,-81.5"/>
<text text-anchor="start" x="557" y="-88.3" font-family="monospace" font-size="14.00">1</text>
<polygon fill="none" stroke="#00ff00" points="643,-81.5 643,-102.5 872,-102.5 872,-81.5 643,-81.5"/>
<text text-anchor="start" x="679" y="-88.3" font-family="monospace" font-size="14.00">x :: Matrix float64</text>
<polygon fill="none" stroke="#00ff00" points="480,-60.5 480,-81.5 643,-81.5 643,-60.5 480,-60.5"/>
<text text-anchor="start" x="540.5" y="-67.3" font-family="monospace" font-size="14.00">Shape</text>
<polygon fill="none" stroke="#00ff00" points="643,-60.5 643,-81.5 872,-81.5 872,-60.5 643,-60.5"/>
<text text-anchor="start" x="720" y="-67.3" font-family="monospace" font-size="14.00">(3649, 1)</text>
<polygon fill="none" stroke="#00ff00" points="480,-39.5 480,-60.5 643,-60.5 643,-39.5 480,-39.5"/>
<text text-anchor="start" x="483" y="-46.3" font-family="monospace" font-size="14.00">Overwrites Input &#45;1</text>
<polygon fill="none" stroke="#00ff00" points="643,-39.5 643,-60.5 872,-60.5 872,-39.5 643,-39.5"/>
<text text-anchor="start" x="707.5" y="-46.3" font-family="monospace" font-size="14.00">Data On: CPU</text>
<polygon fill="none" stroke="#00ff00" points="480,-3.5 480,-39.5 643,-39.5 643,-3.5 480,-3.5"/>
<text text-anchor="start" x="540.5" y="-17.8" font-family="monospace" font-size="14.00">Value</text>
<polygon fill="none" stroke="#00ff00" points="643,-3.5 643,-39.5 872,-39.5 872,-3.5 643,-3.5"/>
<text text-anchor="start" x="666.5" y="-25.3" font-family="monospace" font-size="14.00">Vector (3649, 1) [1 1]</text>
<text text-anchor="start" x="646" y="-10.3" font-family="monospace" font-size="14.00">C[20.7 &#160;17.9 &#160;⋯ 13.5 &#160;15.7]</text>
</g>
<!-- Node_0xc0003b4380&#45;&gt;Node_0xc0003b40e0 -->
<g id="edge2" class="edge"><title>Node_0xc0003b4380:Node_0xc0003b4380:anchor&#45;&gt;Node_0xc0003b40e0:Node_0xc0003b40e0:anchor</title>
<path fill="none" stroke="black" d="M676,-217.954C676,-187.309 676,-149.148 676,-117.408"/>
<polygon fill="black" stroke="black" points="679.5,-117.346 676,-107.346 672.5,-117.346 679.5,-117.346"/>
<text text-anchor="middle" x="668.5" y="-206.754" font-family="Times New Roman,serif" font-size="14.00"> 0 </text>
</g>
<!-- Node_0xc0003b4460 -->
<g id="node5" class="node"><title>Node_0xc0003b4460</title>
<polygon fill="none" stroke="black" points="136,-526.5 136,-547.5 291,-547.5 291,-526.5 136,-526.5"/>
<text text-anchor="start" x="209" y="-533.3" font-family="monospace" font-size="14.00">5</text>
<polygon fill="none" stroke="black" points="291,-526.5 291,-547.5 636,-547.5 636,-526.5 291,-526.5"/>
<text text-anchor="start" x="327" y="-533.3" font-family="monospace" font-size="14.00">&#45; false(%4, %0) :: Vector float64</text>
<polygon fill="none" stroke="black" points="136,-505.5 136,-526.5 291,-526.5 291,-505.5 136,-505.5"/>
<text text-anchor="start" x="205" y="-512.3" font-family="monospace" font-size="14.00">Op</text>
<polygon fill="none" stroke="black" points="291,-505.5 291,-526.5 636,-526.5 636,-505.5 291,-505.5"/>
<text text-anchor="start" x="294" y="-512.3" font-family="monospace" font-size="14.00">&#45; false :: Vector a → Vector a → Vector a</text>
<polygon fill="none" stroke="black" points="136,-484.5 136,-505.5 291,-505.5 291,-484.5 136,-484.5"/>
<text text-anchor="start" x="192.5" y="-491.3" font-family="monospace" font-size="14.00">Shape</text>
<polygon fill="none" stroke="black" points="291,-484.5 291,-505.5 636,-505.5 636,-484.5 291,-484.5"/>
<text text-anchor="start" x="438.5" y="-491.3" font-family="monospace" font-size="14.00">(3649)</text>
<polygon fill="none" stroke="black" points="136,-463.5 136,-484.5 291,-484.5 291,-463.5 136,-463.5"/>
<text text-anchor="start" x="139" y="-470.3" font-family="monospace" font-size="14.00">Overwrites Input 0</text>
<polygon fill="none" stroke="black" points="291,-463.5 291,-484.5 636,-484.5 636,-463.5 291,-463.5"/>
<text text-anchor="start" x="413.5" y="-470.3" font-family="monospace" font-size="14.00">Data On: CPU</text>
<polygon fill="none" stroke="black" points="136,-442.5 136,-463.5 291,-463.5 291,-442.5 136,-442.5"/>
<text text-anchor="start" x="192.5" y="-449.3" font-family="monospace" font-size="14.00">Value</text>
<polygon fill="none" stroke="black" points="291,-442.5 291,-463.5 636,-463.5 636,-442.5 291,-442.5"/>
<text text-anchor="start" x="430" y="-449.3" font-family="monospace" font-size="14.00">%!s(NIL)</text>
</g>
<!-- Node_0xc0003b4460&#45;&gt;Node_0xc0003b4380 -->
<g id="edge4" class="edge"><title>Node_0xc0003b4460:Node_0xc0003b4460:anchor&#45;&gt;Node_0xc0003b4380:Node_0xc0003b4380:anchor</title>
<path fill="none" stroke="black" d="M459.554,-438.954C500.62,-407.942 551.88,-369.232 594.205,-337.269"/>
<polygon fill="black" stroke="black" points="596.402,-339.996 602.273,-331.177 592.183,-334.41 596.402,-339.996"/>
<text text-anchor="middle" x="452.054" y="-427.754" font-family="Times New Roman,serif" font-size="14.00"> 0 </text>
</g>
<!-- Node_0xc0003b4000 -->
<g id="node6" class="node"><title>Node_0xc0003b4000</title>
<polygon fill="lightyellow" stroke="none" points="8,-4 8,-103 392,-103 392,-4 8,-4"/>
<polygon fill="none" stroke="#00ff00" points="8,-81.5 8,-102.5 171,-102.5 171,-81.5 8,-81.5"/>
<text text-anchor="start" x="85" y="-88.3" font-family="monospace" font-size="14.00">0</text>
<polygon fill="none" stroke="#00ff00" points="171,-81.5 171,-102.5 392,-102.5 392,-81.5 171,-81.5"/>
<text text-anchor="start" x="203" y="-88.3" font-family="monospace" font-size="14.00">y :: Vector float64</text>
<polygon fill="none" stroke="#00ff00" points="8,-60.5 8,-81.5 171,-81.5 171,-60.5 8,-60.5"/>
<text text-anchor="start" x="68.5" y="-67.3" font-family="monospace" font-size="14.00">Shape</text>
<polygon fill="none" stroke="#00ff00" points="171,-60.5 171,-81.5 392,-81.5 392,-60.5 171,-60.5"/>
<text text-anchor="start" x="256.5" y="-67.3" font-family="monospace" font-size="14.00">(3649)</text>
<polygon fill="none" stroke="#00ff00" points="8,-39.5 8,-60.5 171,-60.5 171,-39.5 8,-39.5"/>
<text text-anchor="start" x="11" y="-46.3" font-family="monospace" font-size="14.00">Overwrites Input &#45;1</text>
<polygon fill="none" stroke="#00ff00" points="171,-39.5 171,-60.5 392,-60.5 392,-39.5 171,-39.5"/>
<text text-anchor="start" x="231.5" y="-46.3" font-family="monospace" font-size="14.00">Data On: CPU</text>
<polygon fill="none" stroke="#00ff00" points="8,-3.5 8,-39.5 171,-39.5 171,-3.5 8,-3.5"/>
<text text-anchor="start" x="68.5" y="-17.8" font-family="monospace" font-size="14.00">Value</text>
<polygon fill="none" stroke="#00ff00" points="171,-3.5 171,-39.5 392,-39.5 392,-3.5 171,-3.5"/>
<text text-anchor="start" x="211" y="-25.3" font-family="monospace" font-size="14.00">Vector (3649) [1]</text>
<text text-anchor="start" x="174" y="-10.3" font-family="monospace" font-size="14.00">[17.9 &#160;18.8 &#160;⋯ 15.7 &#160;&#160;&#160;13]</text>
</g>
<!-- Node_0xc0003b4460&#45;&gt;Node_0xc0003b4000 -->
<g id="edge5" class="edge"><title>Node_0xc0003b4460:Node_0xc0003b4460:anchor&#45;&gt;Node_0xc0003b4000:Node_0xc0003b4000:anchor</title>
<path fill="none" stroke="black" d="M362.443,-438.774C327.581,-356.304 262.472,-202.282 226.166,-116.399"/>
<polygon fill="black" stroke="black" points="229.326,-114.883 222.208,-107.035 222.878,-117.609 229.326,-114.883"/>
<text text-anchor="middle" x="354.943" y="-427.574" font-family="Times New Roman,serif" font-size="14.00"> 1 </text>
</g>
<!-- Node_0xc0003b4540 -->
<g id="node7" class="node"><title>Node_0xc0003b4540</title>
<polygon fill="none" stroke="black" points="182,-747.5 182,-768.5 337,-768.5 337,-747.5 182,-747.5"/>
<text text-anchor="start" x="255" y="-754.3" font-family="monospace" font-size="14.00">6</text>
<polygon fill="none" stroke="black" points="337,-747.5 337,-768.5 591,-768.5 591,-747.5 337,-747.5"/>
<text text-anchor="start" x="340" y="-754.3" font-family="monospace" font-size="14.00">squaredError :: Vector float64</text>
<polygon fill="none" stroke="black" points="182,-726.5 182,-747.5 337,-747.5 337,-726.5 182,-726.5"/>
<text text-anchor="start" x="251" y="-733.3" font-family="monospace" font-size="14.00">Op</text>
<polygon fill="none" stroke="black" points="337,-726.5 337,-747.5 591,-747.5 591,-726.5 337,-726.5"/>
<text text-anchor="start" x="402" y="-733.3" font-family="monospace" font-size="14.00">square :: a → a</text>
<polygon fill="none" stroke="black" points="182,-705.5 182,-726.5 337,-726.5 337,-705.5 182,-705.5"/>
<text text-anchor="start" x="238.5" y="-712.3" font-family="monospace" font-size="14.00">Shape</text>
<polygon fill="none" stroke="black" points="337,-705.5 337,-726.5 591,-726.5 591,-705.5 337,-705.5"/>
<text text-anchor="start" x="439" y="-712.3" font-family="monospace" font-size="14.00">(3649)</text>
<polygon fill="none" stroke="black" points="182,-684.5 182,-705.5 337,-705.5 337,-684.5 182,-684.5"/>
<text text-anchor="start" x="185" y="-691.3" font-family="monospace" font-size="14.00">Overwrites Input 0</text>
<polygon fill="none" stroke="black" points="337,-684.5 337,-705.5 591,-705.5 591,-684.5 337,-684.5"/>
<text text-anchor="start" x="414" y="-691.3" font-family="monospace" font-size="14.00">Data On: CPU</text>
<polygon fill="none" stroke="black" points="182,-663.5 182,-684.5 337,-684.5 337,-663.5 182,-663.5"/>
<text text-anchor="start" x="238.5" y="-670.3" font-family="monospace" font-size="14.00">Value</text>
<polygon fill="none" stroke="black" points="337,-663.5 337,-684.5 591,-684.5 591,-663.5 337,-663.5"/>
<text text-anchor="start" x="430.5" y="-670.3" font-family="monospace" font-size="14.00">%!s(NIL)</text>
</g>
<!-- Node_0xc0003b4540&#45;&gt;Node_0xc0003b4460 -->
<g id="edge6" class="edge"><title>Node_0xc0003b4540:Node_0xc0003b4540:anchor&#45;&gt;Node_0xc0003b4460:Node_0xc0003b4460:anchor</title>
<path fill="none" stroke="black" d="M386,-659.954C386,-630.353 386,-593.739 386,-562.672"/>
<polygon fill="black" stroke="black" points="389.5,-562.367 386,-552.367 382.5,-562.367 389.5,-562.367"/>
<text text-anchor="middle" x="378.5" y="-648.754" font-family="Times New Roman,serif" font-size="14.00"> 0 </text>
</g>
<!-- Node_0xc0003b4620 -->
<g id="node8" class="node"><title>Node_0xc0003b4620</title>
<polygon fill="none" stroke="black" points="170,-968.5 170,-989.5 325,-989.5 325,-968.5 170,-968.5"/>
<text text-anchor="start" x="243" y="-975.3" font-family="monospace" font-size="14.00">7</text>
<polygon fill="none" stroke="black" points="325,-968.5 325,-989.5 513,-989.5 513,-968.5 325,-968.5"/>
<text text-anchor="start" x="340.5" y="-975.3" font-family="monospace" font-size="14.00">Σ[0](%6) :: float64</text>
<polygon fill="none" stroke="black" points="170,-947.5 170,-968.5 325,-968.5 325,-947.5 170,-947.5"/>
<text text-anchor="start" x="239" y="-954.3" font-family="monospace" font-size="14.00">Op</text>
<polygon fill="none" stroke="black" points="325,-947.5 325,-968.5 513,-968.5 513,-947.5 325,-947.5"/>
<text text-anchor="start" x="328" y="-954.3" font-family="monospace" font-size="14.00">Σ[0] :: Tensor&#45;0 a → a</text>
<polygon fill="none" stroke="black" points="170,-926.5 170,-947.5 325,-947.5 325,-926.5 170,-926.5"/>
<text text-anchor="start" x="226.5" y="-933.3" font-family="monospace" font-size="14.00">Shape</text>
<polygon fill="none" stroke="black" points="325,-926.5 325,-947.5 513,-947.5 513,-926.5 325,-926.5"/>
<text text-anchor="start" x="410.5" y="-933.3" font-family="monospace" font-size="14.00">()</text>
<polygon fill="none" stroke="black" points="170,-905.5 170,-926.5 325,-926.5 325,-905.5 170,-905.5"/>
<text text-anchor="start" x="173" y="-912.3" font-family="monospace" font-size="14.00">Overwrites Input 0</text>
<polygon fill="none" stroke="black" points="325,-905.5 325,-926.5 513,-926.5 513,-905.5 325,-905.5"/>
<text text-anchor="start" x="369" y="-912.3" font-family="monospace" font-size="14.00">Data On: CPU</text>
<polygon fill="none" stroke="black" points="170,-884.5 170,-905.5 325,-905.5 325,-884.5 170,-884.5"/>
<text text-anchor="start" x="226.5" y="-891.3" font-family="monospace" font-size="14.00">Value</text>
<polygon fill="none" stroke="black" points="325,-884.5 325,-905.5 513,-905.5 513,-884.5 325,-884.5"/>
<text text-anchor="start" x="385.5" y="-891.3" font-family="monospace" font-size="14.00">%!s(NIL)</text>
</g>
<!-- Node_0xc0003b4620&#45;&gt;Node_0xc0003b4540 -->
<g id="edge7" class="edge"><title>Node_0xc0003b4620:Node_0xc0003b4620:anchor&#45;&gt;Node_0xc0003b4540:Node_0xc0003b4540:anchor</title>
<path fill="none" stroke="black" d="M352.414,-880.954C358.522,-851.224 366.085,-814.42 372.486,-783.267"/>
<polygon fill="black" stroke="black" points="375.936,-783.867 374.52,-773.367 369.079,-782.458 375.936,-783.867"/>
<text text-anchor="middle" x="344.914" y="-869.754" font-family="Times New Roman,serif" font-size="14.00"> 0 </text>
</g>
<!-- Node_0xc0003b4700 -->
<g id="node9" class="node"><title>Node_0xc0003b4700</title>
<polygon fill="none" stroke="black" points="601,-968.5 601,-989.5 764,-989.5 764,-968.5 601,-968.5"/>
<text text-anchor="start" x="678" y="-975.3" font-family="monospace" font-size="14.00">8</text>
<polygon fill="none" stroke="black" points="764,-968.5 764,-989.5 993,-989.5 993,-968.5 764,-968.5"/>
<text text-anchor="start" x="771" y="-975.3" font-family="monospace" font-size="14.00">SizeOf=3649(%6) :: float64</text>
<polygon fill="none" stroke="black" points="601,-947.5 601,-968.5 764,-968.5 764,-947.5 601,-947.5"/>
<text text-anchor="start" x="674" y="-954.3" font-family="monospace" font-size="14.00">Op</text>
<polygon fill="none" stroke="black" points="764,-947.5 764,-968.5 993,-968.5 993,-947.5 764,-947.5"/>
<text text-anchor="start" x="767" y="-954.3" font-family="monospace" font-size="14.00">SizeOf=3649 :: Vector a → a</text>
<polygon fill="none" stroke="black" points="601,-926.5 601,-947.5 764,-947.5 764,-926.5 601,-926.5"/>
<text text-anchor="start" x="661.5" y="-933.3" font-family="monospace" font-size="14.00">Shape</text>
<polygon fill="none" stroke="black" points="764,-926.5 764,-947.5 993,-947.5 993,-926.5 764,-926.5"/>
<text text-anchor="start" x="870" y="-933.3" font-family="monospace" font-size="14.00">()</text>
<polygon fill="none" stroke="black" points="601,-905.5 601,-926.5 764,-926.5 764,-905.5 601,-905.5"/>
<text text-anchor="start" x="604" y="-912.3" font-family="monospace" font-size="14.00">Overwrites Input &#45;1</text>
<polygon fill="none" stroke="black" points="764,-905.5 764,-926.5 993,-926.5 993,-905.5 764,-905.5"/>
<text text-anchor="start" x="828.5" y="-912.3" font-family="monospace" font-size="14.00">Data On: CPU</text>
<polygon fill="none" stroke="black" points="601,-884.5 601,-905.5 764,-905.5 764,-884.5 601,-884.5"/>
<text text-anchor="start" x="661.5" y="-891.3" font-family="monospace" font-size="14.00">Value</text>
<polygon fill="none" stroke="black" points="764,-884.5 764,-905.5 993,-905.5 993,-884.5 764,-884.5"/>
<text text-anchor="start" x="845" y="-891.3" font-family="monospace" font-size="14.00">%!s(NIL)</text>
</g>
<!-- Node_0xc0003b4700&#45;&gt;Node_0xc0003b4540 -->
<g id="edge8" class="edge"><title>Node_0xc0003b4700:Node_0xc0003b4700:anchor&#45;&gt;Node_0xc0003b4540:Node_0xc0003b4540:anchor</title>
<path fill="none" stroke="black" d="M692.756,-880.954C633.829,-849.555 560.094,-810.265 499.684,-778.076"/>
<polygon fill="black" stroke="black" points="500.961,-774.791 490.49,-773.177 497.669,-780.968 500.961,-774.791"/>
<text text-anchor="middle" x="685.256" y="-869.754" font-family="Times New Roman,serif" font-size="14.00"> 0 </text>
</g>
<!-- Node_0xc0003b48c0 -->
<g id="node10" class="node"><title>Node_0xc0003b48c0</title>
<polygon fill="none" stroke="black" points="377,-1189.5 377,-1210.5 540,-1210.5 540,-1189.5 377,-1189.5"/>
<text text-anchor="start" x="454" y="-1196.3" font-family="monospace" font-size="14.00">9</text>
<polygon fill="none" stroke="black" points="540,-1189.5 540,-1210.5 712,-1210.5 712,-1189.5 540,-1189.5"/>
<text text-anchor="start" x="564" y="-1196.3" font-family="monospace" font-size="14.00">cost :: float64</text>
<polygon fill="none" stroke="black" points="377,-1168.5 377,-1189.5 540,-1189.5 540,-1168.5 377,-1168.5"/>
<text text-anchor="start" x="450" y="-1175.3" font-family="monospace" font-size="14.00">Op</text>
<polygon fill="none" stroke="black" points="540,-1168.5 540,-1189.5 712,-1189.5 712,-1168.5 540,-1168.5"/>
<text text-anchor="start" x="543" y="-1175.3" font-family="monospace" font-size="14.00">÷ false :: a → a → a</text>
<polygon fill="none" stroke="black" points="377,-1147.5 377,-1168.5 540,-1168.5 540,-1147.5 377,-1147.5"/>
<text text-anchor="start" x="437.5" y="-1154.3" font-family="monospace" font-size="14.00">Shape</text>
<polygon fill="none" stroke="black" points="540,-1147.5 540,-1168.5 712,-1168.5 712,-1147.5 540,-1147.5"/>
<text text-anchor="start" x="617.5" y="-1154.3" font-family="monospace" font-size="14.00">()</text>
<polygon fill="none" stroke="black" points="377,-1126.5 377,-1147.5 540,-1147.5 540,-1126.5 377,-1126.5"/>
<text text-anchor="start" x="380" y="-1133.3" font-family="monospace" font-size="14.00">Overwrites Input &#45;1</text>
<polygon fill="none" stroke="black" points="540,-1126.5 540,-1147.5 712,-1147.5 712,-1126.5 540,-1126.5"/>
<text text-anchor="start" x="576" y="-1133.3" font-family="monospace" font-size="14.00">Data On: CPU</text>
<polygon fill="none" stroke="black" points="377,-1105.5 377,-1126.5 540,-1126.5 540,-1105.5 377,-1105.5"/>
<text text-anchor="start" x="437.5" y="-1112.3" font-family="monospace" font-size="14.00">Value</text>
<polygon fill="none" stroke="black" points="540,-1105.5 540,-1126.5 712,-1126.5 712,-1105.5 540,-1105.5"/>
<text text-anchor="start" x="592.5" y="-1112.3" font-family="monospace" font-size="14.00">%!s(NIL)</text>
</g>
<!-- Node_0xc0003b48c0&#45;&gt;Node_0xc0003b4620 -->
<g id="edge9" class="edge"><title>Node_0xc0003b48c0:Node_0xc0003b48c0:anchor&#45;&gt;Node_0xc0003b4620:Node_0xc0003b4620:anchor</title>
<path fill="none" stroke="black" d="M492.512,-1101.95C464.238,-1071.45 429.062,-1033.5 399.723,-1001.85"/>
<polygon fill="black" stroke="black" points="402.151,-999.322 392.786,-994.367 397.017,-1004.08 402.151,-999.322"/>
<text text-anchor="middle" x="485.012" y="-1090.75" font-family="Times New Roman,serif" font-size="14.00"> 0 </text>
</g>
<!-- Node_0xc0003b48c0&#45;&gt;Node_0xc0003b4700 -->
<g id="edge10" class="edge"><title>Node_0xc0003b48c0:Node_0xc0003b48c0:anchor&#45;&gt;Node_0xc0003b4700:Node_0xc0003b4700:anchor</title>
<path fill="none" stroke="black" d="M608.17,-1101.95C643.705,-1071.19 687.988,-1032.86 724.737,-1001.05"/>
<polygon fill="black" stroke="black" points="727.189,-1003.56 732.459,-994.367 722.608,-998.266 727.189,-1003.56"/>
<text text-anchor="middle" x="600.67" y="-1090.75" font-family="Times New Roman,serif" font-size="14.00"> 1 </text>
</g>
<!-- Node_0xc0003b49a0 -->
<g id="node11" class="node"><title>Node_0xc0003b49a0</title>
<polygon fill="lightblue" stroke="none" points="306.5,-1348 306.5,-1411 781.5,-1411 781.5,-1348 306.5,-1348"/>
<polygon fill="none" stroke="#ff0000" points="307,-1389.5 307,-1410.5 462,-1410.5 462,-1389.5 307,-1389.5"/>
<text text-anchor="start" x="380" y="-1396.3" font-family="monospace" font-size="14.00">a</text>
<polygon fill="none" stroke="#ff0000" points="462,-1389.5 462,-1410.5 782,-1410.5 782,-1389.5 462,-1389.5"/>
<text text-anchor="start" x="465" y="-1396.3" font-family="monospace" font-size="14.00">read cost :: float64 into &lt;nil&gt; :: NIL</text>
<polygon fill="none" stroke="#ff0000" points="307,-1368.5 307,-1389.5 462,-1389.5 462,-1368.5 307,-1368.5"/>
<text text-anchor="start" x="310" y="-1375.3" font-family="monospace" font-size="14.00">Overwrites Input 0</text>
<polygon fill="none" stroke="#ff0000" points="462,-1368.5 462,-1389.5 782,-1389.5 782,-1368.5 462,-1368.5"/>
<text text-anchor="start" x="572" y="-1375.3" font-family="monospace" font-size="14.00">Data On: CPU</text>
<polygon fill="none" stroke="#ff0000" points="307,-1347.5 307,-1368.5 462,-1368.5 462,-1347.5 307,-1347.5"/>
<text text-anchor="start" x="363.5" y="-1354.3" font-family="monospace" font-size="14.00">Value</text>
<polygon fill="none" stroke="#ff0000" points="462,-1347.5 462,-1368.5 782,-1368.5 782,-1347.5 462,-1347.5"/>
<text text-anchor="start" x="588.5" y="-1354.3" font-family="monospace" font-size="14.00">%!s(NIL)</text>
</g>
<!-- Node_0xc0003b49a0&#45;&gt;Node_0xc0003b48c0 -->
<g id="edge11" class="edge"><title>Node_0xc0003b49a0:Node_0xc0003b49a0:anchor&#45;&gt;Node_0xc0003b48c0:Node_0xc0003b48c0:anchor</title>
<path fill="none" stroke="black" d="M544,-1343.8C544,-1312.13 544,-1264.48 544,-1225.57"/>
<polygon fill="black" stroke="black" points="547.5,-1225.36 544,-1215.36 540.5,-1225.36 547.5,-1225.36"/>
<text text-anchor="middle" x="536.5" y="-1332.6" font-family="Times New Roman,serif" font-size="14.00"> 0 </text>
</g>
<!-- outsideRoot -->
<!-- insideInputs -->
<!-- outsideRoot&#45;&gt;insideInputs -->
<!-- outsideExprG -->
<!-- outsideRoot&#45;&gt;outsideExprG -->
<!-- insideExprG -->
<!-- insideInputs&#45;&gt;insideExprG -->
<!-- outsideExprG&#45;&gt;insideExprG -->
</g>
</svg>
