<?xml version="1.0" encoding="UTF-8" standalone="no"?>
<!DOCTYPE svg PUBLIC "-//W3C//DTD SVG 1.1//EN"
 "http://www.w3.org/Graphics/SVG/1.1/DTD/svg11.dtd">
<!-- Generated by graphviz version 2.43.0 (0)
 -->
<!-- Title: fullGraph Pages: 1 -->
<svg width="2401pt" height="2667pt"
 viewBox="0.00 0.00 2400.80 2667.00" xmlns="http://www.w3.org/2000/svg" xmlns:xlink="http://www.w3.org/1999/xlink">
<g id="graph0" class="graph" transform="scale(1 1) rotate(0) translate(4 2663)">
<title>fullGraph</title>
<polygon fill="white" stroke="transparent" points="-4,4 -4,-2663 2396.8,-2663 2396.8,4 -4,4"/>
<g id="clust1" class="cluster">
<title>cluster_expressionGraph</title>
<polygon fill="none" stroke="black" points="278.5,-267 278.5,-2651 1381.5,-2651 1381.5,-267 278.5,-267"/>
<text text-anchor="middle" x="830" y="-2635.8" font-family="Times,serif" font-size="14.00">expressionGraph</text>
</g>
<!-- Node_0xc0000ecee0 -->
<g id="node1" class="node">
<title>Node_0xc0000ecee0</title>
<polygon fill="none" stroke="black" points="585.5,-362.5 585.5,-383.5 740.5,-383.5 740.5,-362.5 585.5,-362.5"/>
<text text-anchor="start" x="658.5" y="-369.3" font-family="monospace" font-size="14.00">2</text>
<polygon fill="none" stroke="black" points="740.5,-362.5 740.5,-383.5 1002.5,-383.5 1002.5,-362.5 740.5,-362.5"/>
<text text-anchor="start" x="747.5" y="-369.3" font-family="monospace" font-size="14.00">Aᵀ{1, 0}(%1) :: Matrix float64</text>
<polygon fill="none" stroke="black" points="585.5,-341.5 585.5,-362.5 740.5,-362.5 740.5,-341.5 585.5,-341.5"/>
<text text-anchor="start" x="654.5" y="-348.3" font-family="monospace" font-size="14.00">Op</text>
<polygon fill="none" stroke="black" points="740.5,-341.5 740.5,-362.5 1002.5,-362.5 1002.5,-341.5 740.5,-341.5"/>
<text text-anchor="start" x="743.5" y="-348.3" font-family="monospace" font-size="14.00">Aᵀ{1, 0} :: Matrix a → Matrix a</text>
<polygon fill="none" stroke="black" points="585.5,-320.5 585.5,-341.5 740.5,-341.5 740.5,-320.5 585.5,-320.5"/>
<text text-anchor="start" x="642" y="-327.3" font-family="monospace" font-size="14.00">Shape</text>
<polygon fill="none" stroke="black" points="740.5,-320.5 740.5,-341.5 1002.5,-341.5 1002.5,-320.5 740.5,-320.5"/>
<text text-anchor="start" x="834" y="-327.3" font-family="monospace" font-size="14.00">(3, 3645)</text>
<polygon fill="none" stroke="black" points="585.5,-299.5 585.5,-320.5 740.5,-320.5 740.5,-299.5 585.5,-299.5"/>
<text text-anchor="start" x="588.5" y="-306.3" font-family="monospace" font-size="14.00">Overwrites Input 0</text>
<polygon fill="none" stroke="black" points="740.5,-299.5 740.5,-320.5 1002.5,-320.5 1002.5,-299.5 740.5,-299.5"/>
<text text-anchor="start" x="821.5" y="-306.3" font-family="monospace" font-size="14.00">Data On: CPU</text>
<polygon fill="none" stroke="black" points="585.5,-278.5 585.5,-299.5 740.5,-299.5 740.5,-278.5 585.5,-278.5"/>
<text text-anchor="start" x="642" y="-285.3" font-family="monospace" font-size="14.00">Value</text>
<polygon fill="none" stroke="black" points="740.5,-278.5 740.5,-299.5 1002.5,-299.5 1002.5,-278.5 740.5,-278.5"/>
<text text-anchor="start" x="838" y="-285.3" font-family="monospace" font-size="14.00">%!s(NIL)</text>
</g>
<!-- Node_0xc0000ec0e0 -->
<g id="node2" class="node">
<title>Node_0xc0000ec0e0</title>
<polygon fill="lightyellow" stroke="transparent" points="895.5,-4 895.5,-163 1337.5,-163 1337.5,-4 895.5,-4"/>
<polygon fill="none" stroke="#00ff00" points="895.5,-141.5 895.5,-162.5 1058.5,-162.5 1058.5,-141.5 895.5,-141.5"/>
<text text-anchor="start" x="972.5" y="-148.3" font-family="monospace" font-size="14.00">1</text>
<polygon fill="none" stroke="#00ff00" points="1058.5,-141.5 1058.5,-162.5 1337.5,-162.5 1337.5,-141.5 1058.5,-141.5"/>
<text text-anchor="start" x="1119.5" y="-148.3" font-family="monospace" font-size="14.00">x :: Matrix float64</text>
<polygon fill="none" stroke="#00ff00" points="895.5,-120.5 895.5,-141.5 1058.5,-141.5 1058.5,-120.5 895.5,-120.5"/>
<text text-anchor="start" x="956" y="-127.3" font-family="monospace" font-size="14.00">Shape</text>
<polygon fill="none" stroke="#00ff00" points="1058.5,-120.5 1058.5,-141.5 1337.5,-141.5 1337.5,-120.5 1058.5,-120.5"/>
<text text-anchor="start" x="1160.5" y="-127.3" font-family="monospace" font-size="14.00">(3645, 3)</text>
<polygon fill="none" stroke="#00ff00" points="895.5,-99.5 895.5,-120.5 1058.5,-120.5 1058.5,-99.5 895.5,-99.5"/>
<text text-anchor="start" x="898.5" y="-106.3" font-family="monospace" font-size="14.00">Overwrites Input &#45;1</text>
<polygon fill="none" stroke="#00ff00" points="1058.5,-99.5 1058.5,-120.5 1337.5,-120.5 1337.5,-99.5 1058.5,-99.5"/>
<text text-anchor="start" x="1148" y="-106.3" font-family="monospace" font-size="14.00">Data On: CPU</text>
<polygon fill="none" stroke="#00ff00" points="895.5,-3.5 895.5,-99.5 1058.5,-99.5 1058.5,-3.5 895.5,-3.5"/>
<text text-anchor="start" x="956" y="-47.8" font-family="monospace" font-size="14.00">Value</text>
<polygon fill="none" stroke="#00ff00" points="1058.5,-3.5 1058.5,-99.5 1337.5,-99.5 1337.5,-3.5 1058.5,-3.5"/>
<text text-anchor="start" x="1107" y="-85.3" font-family="monospace" font-size="14.00">Matrix (3645, 3) [3 1]</text>
<text text-anchor="start" x="1061.5" y="-70.3" font-family="monospace" font-size="14.00">⎡ &#160;&#160;&#160;&#160;&#160;5.4 &#160;&#160;&#160;&#160;&#160;&#160;&#45;5.1 &#160;&#160;&#160;&#160;&#160;&#160;&#160;3.7⎤</text>
<text text-anchor="start" x="1061.5" y="-55.3" font-family="monospace" font-size="14.00">⎢ &#160;&#160;&#160;&#160;&#45;1.2 &#160;&#160;&#160;&#160;&#160;&#160;&#160;5.4 &#160;&#160;&#160;&#160;&#160;&#160;&#45;5.1⎥</text>
<text text-anchor="start" x="1177" y="-40.3" font-family="monospace" font-size="14.00"> &#160;⋮ &#160;</text>
<text text-anchor="start" x="1061.5" y="-25.3" font-family="monospace" font-size="14.00">⎢ &#160;&#160;&#160;&#160;&#160;0.3 &#160;&#160;&#160;&#160;&#160;&#160;&#160;0.2 &#160;&#160;&#160;&#160;&#160;&#160;&#45;2.3⎥</text>
<text text-anchor="start" x="1061.5" y="-10.3" font-family="monospace" font-size="14.00">⎣ &#160;&#160;&#160;&#160;&#160;2.3 &#160;&#160;&#160;&#160;&#160;&#160;&#160;0.3 &#160;&#160;&#160;&#160;&#160;&#160;&#160;0.2⎦</text>
</g>
<!-- Node_0xc0000ecee0&#45;&gt;Node_0xc0000ec0e0 -->
<g id="edge1" class="edge">
<title>Node_0xc0000ecee0:anchor&#45;&gt;Node_0xc0000ec0e0:anchor</title>
<path fill="none" stroke="black" d="M866.39,-274.99C905.8,-244.97 955.4,-207.2 1000.01,-173.22"/>
<polygon fill="black" stroke="black" points="1002.16,-175.98 1007.99,-167.14 997.92,-170.41 1002.16,-175.98"/>
<text text-anchor="middle" x="858.89" y="-263.79" font-family="Times,serif" font-size="14.00"> 0 </text>
</g>
<!-- Node_0xc0000ecfc0 -->
<g id="node3" class="node">
<title>Node_0xc0000ecfc0</title>
<polygon fill="none" stroke="black" points="874.5,-610.5 874.5,-631.5 1037.5,-631.5 1037.5,-610.5 874.5,-610.5"/>
<text text-anchor="start" x="951.5" y="-617.3" font-family="monospace" font-size="14.00">3</text>
<polygon fill="none" stroke="black" points="1037.5,-610.5 1037.5,-631.5 1365.5,-631.5 1365.5,-610.5 1037.5,-610.5"/>
<text text-anchor="start" x="1073.5" y="-617.3" font-family="monospace" font-size="14.00">A × B(%2, %1) :: Matrix float64</text>
<polygon fill="none" stroke="black" points="874.5,-589.5 874.5,-610.5 1037.5,-610.5 1037.5,-589.5 874.5,-589.5"/>
<text text-anchor="start" x="947.5" y="-596.3" font-family="monospace" font-size="14.00">Op</text>
<polygon fill="none" stroke="black" points="1037.5,-589.5 1037.5,-610.5 1365.5,-610.5 1365.5,-589.5 1037.5,-589.5"/>
<text text-anchor="start" x="1040.5" y="-596.3" font-family="monospace" font-size="14.00">A × B :: Matrix a → Matrix a → Matrix a</text>
<polygon fill="none" stroke="black" points="874.5,-568.5 874.5,-589.5 1037.5,-589.5 1037.5,-568.5 874.5,-568.5"/>
<text text-anchor="start" x="935" y="-575.3" font-family="monospace" font-size="14.00">Shape</text>
<polygon fill="none" stroke="black" points="1037.5,-568.5 1037.5,-589.5 1365.5,-589.5 1365.5,-568.5 1037.5,-568.5"/>
<text text-anchor="start" x="1176.5" y="-575.3" font-family="monospace" font-size="14.00">(3, 3)</text>
<polygon fill="none" stroke="black" points="874.5,-547.5 874.5,-568.5 1037.5,-568.5 1037.5,-547.5 874.5,-547.5"/>
<text text-anchor="start" x="877.5" y="-554.3" font-family="monospace" font-size="14.00">Overwrites Input &#45;1</text>
<polygon fill="none" stroke="black" points="1037.5,-547.5 1037.5,-568.5 1365.5,-568.5 1365.5,-547.5 1037.5,-547.5"/>
<text text-anchor="start" x="1151.5" y="-554.3" font-family="monospace" font-size="14.00">Data On: CPU</text>
<polygon fill="none" stroke="black" points="874.5,-526.5 874.5,-547.5 1037.5,-547.5 1037.5,-526.5 874.5,-526.5"/>
<text text-anchor="start" x="935" y="-533.3" font-family="monospace" font-size="14.00">Value</text>
<polygon fill="none" stroke="black" points="1037.5,-526.5 1037.5,-547.5 1365.5,-547.5 1365.5,-526.5 1037.5,-526.5"/>
<text text-anchor="start" x="1168" y="-533.3" font-family="monospace" font-size="14.00">%!s(NIL)</text>
</g>
<!-- Node_0xc0000ecfc0&#45;&gt;Node_0xc0000ecee0 -->
<g id="edge2" class="edge">
<title>Node_0xc0000ecfc0:anchor&#45;&gt;Node_0xc0000ecee0:anchor</title>
<path fill="none" stroke="black" d="M1045.93,-522.99C995.22,-484.72 927.78,-433.82 875.36,-394.27"/>
<polygon fill="black" stroke="black" points="877.17,-391.25 867.08,-388.02 872.96,-396.84 877.17,-391.25"/>
<text text-anchor="middle" x="1038.43" y="-511.79" font-family="Times,serif" font-size="14.00"> 0 </text>
</g>
<!-- Node_0xc0000ecfc0&#45;&gt;Node_0xc0000ec0e0 -->
<g id="edge3" class="edge">
<title>Node_0xc0000ecfc0:anchor&#45;&gt;Node_0xc0000ec0e0:anchor</title>
<path fill="none" stroke="black" d="M1119.16,-522.79C1118.65,-438.87 1117.68,-279.04 1117.06,-177.33"/>
<polygon fill="black" stroke="black" points="1120.56,-177.04 1117,-167.06 1113.56,-177.08 1120.56,-177.04"/>
<text text-anchor="middle" x="1111.66" y="-511.59" font-family="Times,serif" font-size="14.00"> 1 </text>
</g>
<!-- Node_0xc0000ed0a0 -->
<g id="node4" class="node">
<title>Node_0xc0000ed0a0</title>
<polygon fill="none" stroke="black" points="295.5,-610.5 295.5,-631.5 458.5,-631.5 458.5,-610.5 295.5,-610.5"/>
<text text-anchor="start" x="372.5" y="-617.3" font-family="monospace" font-size="14.00">4</text>
<polygon fill="none" stroke="black" points="458.5,-610.5 458.5,-631.5 786.5,-631.5 786.5,-610.5 458.5,-610.5"/>
<text text-anchor="start" x="494.5" y="-617.3" font-family="monospace" font-size="14.00">A × B(%2, %0) :: Matrix float64</text>
<polygon fill="none" stroke="black" points="295.5,-589.5 295.5,-610.5 458.5,-610.5 458.5,-589.5 295.5,-589.5"/>
<text text-anchor="start" x="368.5" y="-596.3" font-family="monospace" font-size="14.00">Op</text>
<polygon fill="none" stroke="black" points="458.5,-589.5 458.5,-610.5 786.5,-610.5 786.5,-589.5 458.5,-589.5"/>
<text text-anchor="start" x="461.5" y="-596.3" font-family="monospace" font-size="14.00">A × B :: Matrix a → Matrix a → Matrix a</text>
<polygon fill="none" stroke="black" points="295.5,-568.5 295.5,-589.5 458.5,-589.5 458.5,-568.5 295.5,-568.5"/>
<text text-anchor="start" x="356" y="-575.3" font-family="monospace" font-size="14.00">Shape</text>
<polygon fill="none" stroke="black" points="458.5,-568.5 458.5,-589.5 786.5,-589.5 786.5,-568.5 458.5,-568.5"/>
<text text-anchor="start" x="597.5" y="-575.3" font-family="monospace" font-size="14.00">(3, 1)</text>
<polygon fill="none" stroke="black" points="295.5,-547.5 295.5,-568.5 458.5,-568.5 458.5,-547.5 295.5,-547.5"/>
<text text-anchor="start" x="298.5" y="-554.3" font-family="monospace" font-size="14.00">Overwrites Input &#45;1</text>
<polygon fill="none" stroke="black" points="458.5,-547.5 458.5,-568.5 786.5,-568.5 786.5,-547.5 458.5,-547.5"/>
<text text-anchor="start" x="572.5" y="-554.3" font-family="monospace" font-size="14.00">Data On: CPU</text>
<polygon fill="none" stroke="black" points="295.5,-526.5 295.5,-547.5 458.5,-547.5 458.5,-526.5 295.5,-526.5"/>
<text text-anchor="start" x="356" y="-533.3" font-family="monospace" font-size="14.00">Value</text>
<polygon fill="none" stroke="black" points="458.5,-526.5 458.5,-547.5 786.5,-547.5 786.5,-526.5 458.5,-526.5"/>
<text text-anchor="start" x="589" y="-533.3" font-family="monospace" font-size="14.00">%!s(NIL)</text>
</g>
<!-- Node_0xc0000ed0a0&#45;&gt;Node_0xc0000ecee0 -->
<g id="edge4" class="edge">
<title>Node_0xc0000ed0a0:anchor&#45;&gt;Node_0xc0000ecee0:anchor</title>
<path fill="none" stroke="black" d="M597.59,-522.99C636.64,-485.02 688.46,-434.63 729,-395.21"/>
<polygon fill="black" stroke="black" points="731.45,-397.72 736.18,-388.24 726.57,-392.7 731.45,-397.72"/>
<text text-anchor="middle" x="590.09" y="-511.79" font-family="Times,serif" font-size="14.00"> 0 </text>
</g>
<!-- Node_0xc0000ec000 -->
<g id="node5" class="node">
<title>Node_0xc0000ec000</title>
<polygon fill="lightyellow" stroke="transparent" points="8,-34 8,-133 565,-133 565,-34 8,-34"/>
<polygon fill="none" stroke="#00ff00" points="8.5,-111.5 8.5,-132.5 171.5,-132.5 171.5,-111.5 8.5,-111.5"/>
<text text-anchor="start" x="85.5" y="-118.3" font-family="monospace" font-size="14.00">0</text>
<polygon fill="none" stroke="#00ff00" points="171.5,-111.5 171.5,-132.5 565.5,-132.5 565.5,-111.5 171.5,-111.5"/>
<text text-anchor="start" x="290" y="-118.3" font-family="monospace" font-size="14.00">y :: Matrix float64</text>
<polygon fill="none" stroke="#00ff00" points="8.5,-90.5 8.5,-111.5 171.5,-111.5 171.5,-90.5 8.5,-90.5"/>
<text text-anchor="start" x="69" y="-97.3" font-family="monospace" font-size="14.00">Shape</text>
<polygon fill="none" stroke="#00ff00" points="171.5,-90.5 171.5,-111.5 565.5,-111.5 565.5,-90.5 171.5,-90.5"/>
<text text-anchor="start" x="331" y="-97.3" font-family="monospace" font-size="14.00">(3645, 1)</text>
<polygon fill="none" stroke="#00ff00" points="8.5,-69.5 8.5,-90.5 171.5,-90.5 171.5,-69.5 8.5,-69.5"/>
<text text-anchor="start" x="11.5" y="-76.3" font-family="monospace" font-size="14.00">Overwrites Input &#45;1</text>
<polygon fill="none" stroke="#00ff00" points="171.5,-69.5 171.5,-90.5 565.5,-90.5 565.5,-69.5 171.5,-69.5"/>
<text text-anchor="start" x="318.5" y="-76.3" font-family="monospace" font-size="14.00">Data On: CPU</text>
<polygon fill="none" stroke="#00ff00" points="8.5,-33.5 8.5,-69.5 171.5,-69.5 171.5,-33.5 8.5,-33.5"/>
<text text-anchor="start" x="69" y="-47.8" font-family="monospace" font-size="14.00">Value</text>
<polygon fill="none" stroke="#00ff00" points="171.5,-33.5 171.5,-69.5 565.5,-69.5 565.5,-33.5 171.5,-33.5"/>
<text text-anchor="start" x="277.5" y="-55.3" font-family="monospace" font-size="14.00">Vector (3645, 1) [1 1]</text>
<text text-anchor="start" x="174.5" y="-40.3" font-family="monospace" font-size="14.00">C[ &#160;&#160;&#160;&#160;&#45;1.2 &#160;&#160;&#160;&#160;&#160;&#160;&#160;&#160;&#160;0 &#160;⋯ &#160;&#160;&#160;&#160;&#160;&#160;2.3 &#160;&#160;&#160;&#160;&#160;&#160;&#45;4.9]</text>
</g>
<!-- Node_0xc0000ed0a0&#45;&gt;Node_0xc0000ec000 -->
<g id="edge5" class="edge">
<title>Node_0xc0000ed0a0:anchor&#45;&gt;Node_0xc0000ec000:anchor</title>
<path fill="none" stroke="black" d="M511.86,-522.79C463.97,-429.66 368.01,-243.03 318.18,-146.11"/>
<polygon fill="black" stroke="black" points="321.19,-144.31 313.5,-137.01 314.96,-147.51 321.19,-144.31"/>
<text text-anchor="middle" x="504.36" y="-511.59" font-family="Times,serif" font-size="14.00"> 1 </text>
</g>
<!-- Node_0xc0000ed180 -->
<g id="node6" class="node">
<title>Node_0xc0000ed180</title>
<polygon fill="none" stroke="black" points="664.5,-858.5 664.5,-879.5 819.5,-879.5 819.5,-858.5 664.5,-858.5"/>
<text text-anchor="start" x="737.5" y="-865.3" font-family="monospace" font-size="14.00">5</text>
<polygon fill="none" stroke="black" points="819.5,-858.5 819.5,-879.5 1032.5,-879.5 1032.5,-858.5 819.5,-858.5"/>
<text text-anchor="start" x="822.5" y="-865.3" font-family="monospace" font-size="14.00">inv(%3) :: Matrix float64</text>
<polygon fill="none" stroke="black" points="664.5,-837.5 664.5,-858.5 819.5,-858.5 819.5,-837.5 664.5,-837.5"/>
<text text-anchor="start" x="733.5" y="-844.3" font-family="monospace" font-size="14.00">Op</text>
<polygon fill="none" stroke="black" points="819.5,-837.5 819.5,-858.5 1032.5,-858.5 1032.5,-837.5 819.5,-837.5"/>
<text text-anchor="start" x="876" y="-844.3" font-family="monospace" font-size="14.00">inv :: a → a</text>
<polygon fill="none" stroke="black" points="664.5,-816.5 664.5,-837.5 819.5,-837.5 819.5,-816.5 664.5,-816.5"/>
<text text-anchor="start" x="721" y="-823.3" font-family="monospace" font-size="14.00">Shape</text>
<polygon fill="none" stroke="black" points="819.5,-816.5 819.5,-837.5 1032.5,-837.5 1032.5,-816.5 819.5,-816.5"/>
<text text-anchor="start" x="901" y="-823.3" font-family="monospace" font-size="14.00">(3, 3)</text>
<polygon fill="none" stroke="black" points="664.5,-795.5 664.5,-816.5 819.5,-816.5 819.5,-795.5 664.5,-795.5"/>
<text text-anchor="start" x="667.5" y="-802.3" font-family="monospace" font-size="14.00">Overwrites Input 0</text>
<polygon fill="none" stroke="black" points="819.5,-795.5 819.5,-816.5 1032.5,-816.5 1032.5,-795.5 819.5,-795.5"/>
<text text-anchor="start" x="876" y="-802.3" font-family="monospace" font-size="14.00">Data On: CPU</text>
<polygon fill="none" stroke="black" points="664.5,-774.5 664.5,-795.5 819.5,-795.5 819.5,-774.5 664.5,-774.5"/>
<text text-anchor="start" x="721" y="-781.3" font-family="monospace" font-size="14.00">Value</text>
<polygon fill="none" stroke="black" points="819.5,-774.5 819.5,-795.5 1032.5,-795.5 1032.5,-774.5 819.5,-774.5"/>
<text text-anchor="start" x="892.5" y="-781.3" font-family="monospace" font-size="14.00">%!s(NIL)</text>
</g>
<!-- Node_0xc0000ed180&#45;&gt;Node_0xc0000ecfc0 -->
<g id="edge6" class="edge">
<title>Node_0xc0000ed180:anchor&#45;&gt;Node_0xc0000ecfc0:anchor</title>
<path fill="none" stroke="black" d="M909.66,-770.99C951.57,-732.94 1007.22,-682.42 1050.68,-642.97"/>
<polygon fill="black" stroke="black" points="1053.05,-645.55 1058.1,-636.24 1048.34,-640.37 1053.05,-645.55"/>
<text text-anchor="middle" x="902.16" y="-759.79" font-family="Times,serif" font-size="14.00"> 0 </text>
</g>
<!-- Node_0xc0000ed260 -->
<g id="node7" class="node">
<title>Node_0xc0000ed260</title>
<polygon fill="none" stroke="black" points="868.5,-1106.5 868.5,-1127.5 1031.5,-1127.5 1031.5,-1106.5 868.5,-1106.5"/>
<text text-anchor="start" x="945.5" y="-1113.3" font-family="monospace" font-size="14.00">6</text>
<polygon fill="none" stroke="black" points="1031.5,-1106.5 1031.5,-1127.5 1359.5,-1127.5 1359.5,-1106.5 1031.5,-1106.5"/>
<text text-anchor="start" x="1067.5" y="-1113.3" font-family="monospace" font-size="14.00">A × B(%5, %4) :: Matrix float64</text>
<polygon fill="none" stroke="black" points="868.5,-1085.5 868.5,-1106.5 1031.5,-1106.5 1031.5,-1085.5 868.5,-1085.5"/>
<text text-anchor="start" x="941.5" y="-1092.3" font-family="monospace" font-size="14.00">Op</text>
<polygon fill="none" stroke="black" points="1031.5,-1085.5 1031.5,-1106.5 1359.5,-1106.5 1359.5,-1085.5 1031.5,-1085.5"/>
<text text-anchor="start" x="1034.5" y="-1092.3" font-family="monospace" font-size="14.00">A × B :: Matrix a → Matrix a → Matrix a</text>
<polygon fill="none" stroke="black" points="868.5,-1064.5 868.5,-1085.5 1031.5,-1085.5 1031.5,-1064.5 868.5,-1064.5"/>
<text text-anchor="start" x="929" y="-1071.3" font-family="monospace" font-size="14.00">Shape</text>
<polygon fill="none" stroke="black" points="1031.5,-1064.5 1031.5,-1085.5 1359.5,-1085.5 1359.5,-1064.5 1031.5,-1064.5"/>
<text text-anchor="start" x="1170.5" y="-1071.3" font-family="monospace" font-size="14.00">(3, 1)</text>
<polygon fill="none" stroke="black" points="868.5,-1043.5 868.5,-1064.5 1031.5,-1064.5 1031.5,-1043.5 868.5,-1043.5"/>
<text text-anchor="start" x="871.5" y="-1050.3" font-family="monospace" font-size="14.00">Overwrites Input &#45;1</text>
<polygon fill="none" stroke="black" points="1031.5,-1043.5 1031.5,-1064.5 1359.5,-1064.5 1359.5,-1043.5 1031.5,-1043.5"/>
<text text-anchor="start" x="1145.5" y="-1050.3" font-family="monospace" font-size="14.00">Data On: CPU</text>
<polygon fill="none" stroke="black" points="868.5,-1022.5 868.5,-1043.5 1031.5,-1043.5 1031.5,-1022.5 868.5,-1022.5"/>
<text text-anchor="start" x="929" y="-1029.3" font-family="monospace" font-size="14.00">Value</text>
<polygon fill="none" stroke="black" points="1031.5,-1022.5 1031.5,-1043.5 1359.5,-1043.5 1359.5,-1022.5 1031.5,-1022.5"/>
<text text-anchor="start" x="1162" y="-1029.3" font-family="monospace" font-size="14.00">%!s(NIL)</text>
</g>
<!-- Node_0xc0000ed260&#45;&gt;Node_0xc0000ed0a0 -->
<g id="edge8" class="edge">
<title>Node_0xc0000ed260:anchor&#45;&gt;Node_0xc0000ed0a0:anchor</title>
<path fill="none" stroke="black" d="M1122.84,-1018.9C1130.71,-952.48 1132.99,-841.54 1076.5,-771 1037.01,-721.7 903.16,-674.1 779.11,-638.82"/>
<polygon fill="black" stroke="black" points="780.01,-635.44 769.43,-636.09 778.1,-642.17 780.01,-635.44"/>
<text text-anchor="middle" x="1115.34" y="-1007.7" font-family="Times,serif" font-size="14.00"> 1 </text>
</g>
<!-- Node_0xc0000ed260&#45;&gt;Node_0xc0000ed180 -->
<g id="edge7" class="edge">
<title>Node_0xc0000ed260:anchor&#45;&gt;Node_0xc0000ed180:anchor</title>
<path fill="none" stroke="black" d="M1053.7,-1018.99C1012.8,-981.02 958.52,-930.63 916.06,-891.21"/>
<polygon fill="black" stroke="black" points="918.25,-888.48 908.54,-884.24 913.49,-893.61 918.25,-888.48"/>
<text text-anchor="middle" x="1046.2" y="-1007.79" font-family="Times,serif" font-size="14.00"> 0 </text>
</g>
<!-- Node_0xc0000ed340 -->
<g id="node8" class="node">
<title>Node_0xc0000ed340</title>
<polygon fill="none" stroke="black" points="870.5,-1354.5 870.5,-1375.5 1033.5,-1375.5 1033.5,-1354.5 870.5,-1354.5"/>
<text text-anchor="start" x="947.5" y="-1361.3" font-family="monospace" font-size="14.00">7</text>
<polygon fill="none" stroke="black" points="1033.5,-1354.5 1033.5,-1375.5 1361.5,-1375.5 1361.5,-1354.5 1033.5,-1354.5"/>
<text text-anchor="start" x="1069.5" y="-1361.3" font-family="monospace" font-size="14.00">A × B(%1, %6) :: Matrix float64</text>
<polygon fill="none" stroke="black" points="870.5,-1333.5 870.5,-1354.5 1033.5,-1354.5 1033.5,-1333.5 870.5,-1333.5"/>
<text text-anchor="start" x="943.5" y="-1340.3" font-family="monospace" font-size="14.00">Op</text>
<polygon fill="none" stroke="black" points="1033.5,-1333.5 1033.5,-1354.5 1361.5,-1354.5 1361.5,-1333.5 1033.5,-1333.5"/>
<text text-anchor="start" x="1036.5" y="-1340.3" font-family="monospace" font-size="14.00">A × B :: Matrix a → Matrix a → Matrix a</text>
<polygon fill="none" stroke="black" points="870.5,-1312.5 870.5,-1333.5 1033.5,-1333.5 1033.5,-1312.5 870.5,-1312.5"/>
<text text-anchor="start" x="931" y="-1319.3" font-family="monospace" font-size="14.00">Shape</text>
<polygon fill="none" stroke="black" points="1033.5,-1312.5 1033.5,-1333.5 1361.5,-1333.5 1361.5,-1312.5 1033.5,-1312.5"/>
<text text-anchor="start" x="1160" y="-1319.3" font-family="monospace" font-size="14.00">(3645, 1)</text>
<polygon fill="none" stroke="black" points="870.5,-1291.5 870.5,-1312.5 1033.5,-1312.5 1033.5,-1291.5 870.5,-1291.5"/>
<text text-anchor="start" x="873.5" y="-1298.3" font-family="monospace" font-size="14.00">Overwrites Input &#45;1</text>
<polygon fill="none" stroke="black" points="1033.5,-1291.5 1033.5,-1312.5 1361.5,-1312.5 1361.5,-1291.5 1033.5,-1291.5"/>
<text text-anchor="start" x="1147.5" y="-1298.3" font-family="monospace" font-size="14.00">Data On: CPU</text>
<polygon fill="none" stroke="black" points="870.5,-1270.5 870.5,-1291.5 1033.5,-1291.5 1033.5,-1270.5 870.5,-1270.5"/>
<text text-anchor="start" x="931" y="-1277.3" font-family="monospace" font-size="14.00">Value</text>
<polygon fill="none" stroke="black" points="1033.5,-1270.5 1033.5,-1291.5 1361.5,-1291.5 1361.5,-1270.5 1033.5,-1270.5"/>
<text text-anchor="start" x="1164" y="-1277.3" font-family="monospace" font-size="14.00">%!s(NIL)</text>
</g>
<!-- Node_0xc0000ed340&#45;&gt;Node_0xc0000ec0e0 -->
<g id="edge9" class="edge">
<title>Node_0xc0000ed340:anchor&#45;&gt;Node_0xc0000ec0e0:anchor</title>
<path fill="none" stroke="black" d="M1239.39,-1266.89C1297.15,-1235.09 1362.11,-1189.92 1403.5,-1132 1484.55,-1018.6 1482.5,-967.88 1482.5,-828.5 1482.5,-828.5 1482.5,-828.5 1482.5,-578.5 1482.5,-410.85 1344.72,-262.96 1238.23,-173.69"/>
<polygon fill="black" stroke="black" points="1240.23,-170.8 1230.3,-167.1 1235.75,-176.18 1240.23,-170.8"/>
<text text-anchor="middle" x="1231.89" y="-1255.69" font-family="Times,serif" font-size="14.00"> 0 </text>
</g>
<!-- Node_0xc0000ed340&#45;&gt;Node_0xc0000ed260 -->
<g id="edge10" class="edge">
<title>Node_0xc0000ed340:anchor&#45;&gt;Node_0xc0000ed260:anchor</title>
<path fill="none" stroke="black" d="M1115.05,-1266.99C1114.75,-1230.04 1114.35,-1181.33 1114.04,-1142.42"/>
<polygon fill="black" stroke="black" points="1117.53,-1142.21 1113.95,-1132.24 1110.53,-1142.27 1117.53,-1142.21"/>
<text text-anchor="middle" x="1107.55" y="-1255.79" font-family="Times,serif" font-size="14.00"> 1 </text>
</g>
<!-- Node_0xc0000ed420 -->
<g id="node9" class="node">
<title>Node_0xc0000ed420</title>
<polygon fill="none" stroke="black" points="865.5,-1602.5 865.5,-1623.5 1020.5,-1623.5 1020.5,-1602.5 865.5,-1602.5"/>
<text text-anchor="start" x="938.5" y="-1609.3" font-family="monospace" font-size="14.00">8</text>
<polygon fill="none" stroke="black" points="1020.5,-1602.5 1020.5,-1623.5 1365.5,-1623.5 1365.5,-1602.5 1020.5,-1602.5"/>
<text text-anchor="start" x="1056.5" y="-1609.3" font-family="monospace" font-size="14.00">&#45; false(%0, %7) :: Matrix float64</text>
<polygon fill="none" stroke="black" points="865.5,-1581.5 865.5,-1602.5 1020.5,-1602.5 1020.5,-1581.5 865.5,-1581.5"/>
<text text-anchor="start" x="934.5" y="-1588.3" font-family="monospace" font-size="14.00">Op</text>
<polygon fill="none" stroke="black" points="1020.5,-1581.5 1020.5,-1602.5 1365.5,-1602.5 1365.5,-1581.5 1020.5,-1581.5"/>
<text text-anchor="start" x="1023.5" y="-1588.3" font-family="monospace" font-size="14.00">&#45; false :: Matrix a → Matrix a → Matrix a</text>
<polygon fill="none" stroke="black" points="865.5,-1560.5 865.5,-1581.5 1020.5,-1581.5 1020.5,-1560.5 865.5,-1560.5"/>
<text text-anchor="start" x="922" y="-1567.3" font-family="monospace" font-size="14.00">Shape</text>
<polygon fill="none" stroke="black" points="1020.5,-1560.5 1020.5,-1581.5 1365.5,-1581.5 1365.5,-1560.5 1020.5,-1560.5"/>
<text text-anchor="start" x="1155.5" y="-1567.3" font-family="monospace" font-size="14.00">(3645, 1)</text>
<polygon fill="none" stroke="black" points="865.5,-1539.5 865.5,-1560.5 1020.5,-1560.5 1020.5,-1539.5 865.5,-1539.5"/>
<text text-anchor="start" x="868.5" y="-1546.3" font-family="monospace" font-size="14.00">Overwrites Input 0</text>
<polygon fill="none" stroke="black" points="1020.5,-1539.5 1020.5,-1560.5 1365.5,-1560.5 1365.5,-1539.5 1020.5,-1539.5"/>
<text text-anchor="start" x="1143" y="-1546.3" font-family="monospace" font-size="14.00">Data On: CPU</text>
<polygon fill="none" stroke="black" points="865.5,-1518.5 865.5,-1539.5 1020.5,-1539.5 1020.5,-1518.5 865.5,-1518.5"/>
<text text-anchor="start" x="922" y="-1525.3" font-family="monospace" font-size="14.00">Value</text>
<polygon fill="none" stroke="black" points="1020.5,-1518.5 1020.5,-1539.5 1365.5,-1539.5 1365.5,-1518.5 1020.5,-1518.5"/>
<text text-anchor="start" x="1159.5" y="-1525.3" font-family="monospace" font-size="14.00">%!s(NIL)</text>
</g>
<!-- Node_0xc0000ed420&#45;&gt;Node_0xc0000ec000 -->
<g id="edge11" class="edge">
<title>Node_0xc0000ed420:anchor&#45;&gt;Node_0xc0000ec000:anchor</title>
<path fill="none" stroke="black" d="M857.33,-1544.83C579.66,-1501.31 177.5,-1385.01 177.5,-1076.5 177.5,-1076.5 177.5,-1076.5 177.5,-578.5 177.5,-419.88 231.75,-239.19 263.71,-146.53"/>
<polygon fill="black" stroke="black" points="267.03,-147.62 267.01,-137.02 260.42,-145.32 267.03,-147.62"/>
<text text-anchor="middle" x="849.83" y="-1548.63" font-family="Times,serif" font-size="14.00"> 0 </text>
</g>
<!-- Node_0xc0000ed420&#45;&gt;Node_0xc0000ed340 -->
<g id="edge12" class="edge">
<title>Node_0xc0000ed420:anchor&#45;&gt;Node_0xc0000ed340:anchor</title>
<path fill="none" stroke="black" d="M1115.5,-1514.99C1115.5,-1478.04 1115.5,-1429.33 1115.5,-1390.42"/>
<polygon fill="black" stroke="black" points="1119,-1390.24 1115.5,-1380.24 1112,-1390.24 1119,-1390.24"/>
<text text-anchor="middle" x="1108" y="-1503.79" font-family="Times,serif" font-size="14.00"> 1 </text>
</g>
<!-- Node_0xc0000ed5e0 -->
<g id="node10" class="node">
<title>Node_0xc0000ed5e0</title>
<polygon fill="none" stroke="black" points="919.5,-1850.5 919.5,-1871.5 1074.5,-1871.5 1074.5,-1850.5 919.5,-1850.5"/>
<text text-anchor="start" x="992.5" y="-1857.3" font-family="monospace" font-size="14.00">9</text>
<polygon fill="none" stroke="black" points="1074.5,-1850.5 1074.5,-1871.5 1312.5,-1871.5 1312.5,-1850.5 1074.5,-1850.5"/>
<text text-anchor="start" x="1077.5" y="-1857.3" font-family="monospace" font-size="14.00">square(%8) :: Matrix float64</text>
<polygon fill="none" stroke="black" points="919.5,-1829.5 919.5,-1850.5 1074.5,-1850.5 1074.5,-1829.5 919.5,-1829.5"/>
<text text-anchor="start" x="988.5" y="-1836.3" font-family="monospace" font-size="14.00">Op</text>
<polygon fill="none" stroke="black" points="1074.5,-1829.5 1074.5,-1850.5 1312.5,-1850.5 1312.5,-1829.5 1074.5,-1829.5"/>
<text text-anchor="start" x="1131.5" y="-1836.3" font-family="monospace" font-size="14.00">square :: a → a</text>
<polygon fill="none" stroke="black" points="919.5,-1808.5 919.5,-1829.5 1074.5,-1829.5 1074.5,-1808.5 919.5,-1808.5"/>
<text text-anchor="start" x="976" y="-1815.3" font-family="monospace" font-size="14.00">Shape</text>
<polygon fill="none" stroke="black" points="1074.5,-1808.5 1074.5,-1829.5 1312.5,-1829.5 1312.5,-1808.5 1074.5,-1808.5"/>
<text text-anchor="start" x="1156" y="-1815.3" font-family="monospace" font-size="14.00">(3645, 1)</text>
<polygon fill="none" stroke="black" points="919.5,-1787.5 919.5,-1808.5 1074.5,-1808.5 1074.5,-1787.5 919.5,-1787.5"/>
<text text-anchor="start" x="922.5" y="-1794.3" font-family="monospace" font-size="14.00">Overwrites Input 0</text>
<polygon fill="none" stroke="black" points="1074.5,-1787.5 1074.5,-1808.5 1312.5,-1808.5 1312.5,-1787.5 1074.5,-1787.5"/>
<text text-anchor="start" x="1143.5" y="-1794.3" font-family="monospace" font-size="14.00">Data On: CPU</text>
<polygon fill="none" stroke="black" points="919.5,-1766.5 919.5,-1787.5 1074.5,-1787.5 1074.5,-1766.5 919.5,-1766.5"/>
<text text-anchor="start" x="976" y="-1773.3" font-family="monospace" font-size="14.00">Value</text>
<polygon fill="none" stroke="black" points="1074.5,-1766.5 1074.5,-1787.5 1312.5,-1787.5 1312.5,-1766.5 1074.5,-1766.5"/>
<text text-anchor="start" x="1160" y="-1773.3" font-family="monospace" font-size="14.00">%!s(NIL)</text>
</g>
<!-- Node_0xc0000ed5e0&#45;&gt;Node_0xc0000ed420 -->
<g id="edge13" class="edge">
<title>Node_0xc0000ed5e0:anchor&#45;&gt;Node_0xc0000ed420:anchor</title>
<path fill="none" stroke="black" d="M1115.5,-1762.99C1115.5,-1726.04 1115.5,-1677.33 1115.5,-1638.42"/>
<polygon fill="black" stroke="black" points="1119,-1638.24 1115.5,-1628.24 1112,-1638.24 1119,-1638.24"/>
<text text-anchor="middle" x="1108" y="-1751.79" font-family="Times,serif" font-size="14.00"> 0 </text>
</g>
<!-- Node_0xc0000ed7a0 -->
<g id="node11" class="node">
<title>Node_0xc0000ed7a0</title>
<polygon fill="none" stroke="black" points="935.5,-2098.5 935.5,-2119.5 1090.5,-2119.5 1090.5,-2098.5 935.5,-2098.5"/>
<text text-anchor="start" x="1008.5" y="-2105.3" font-family="monospace" font-size="14.00">b</text>
<polygon fill="none" stroke="black" points="1090.5,-2098.5 1090.5,-2119.5 1295.5,-2119.5 1295.5,-2098.5 1090.5,-2098.5"/>
<text text-anchor="start" x="1106" y="-2105.3" font-family="monospace" font-size="14.00">Σ[0 1](%9) :: float64</text>
<polygon fill="none" stroke="black" points="935.5,-2077.5 935.5,-2098.5 1090.5,-2098.5 1090.5,-2077.5 935.5,-2077.5"/>
<text text-anchor="start" x="1004.5" y="-2084.3" font-family="monospace" font-size="14.00">Op</text>
<polygon fill="none" stroke="black" points="1090.5,-2077.5 1090.5,-2098.5 1295.5,-2098.5 1295.5,-2077.5 1090.5,-2077.5"/>
<text text-anchor="start" x="1093.5" y="-2084.3" font-family="monospace" font-size="14.00">Σ[0 1] :: Tensor&#45;0 a → a</text>
<polygon fill="none" stroke="black" points="935.5,-2056.5 935.5,-2077.5 1090.5,-2077.5 1090.5,-2056.5 935.5,-2056.5"/>
<text text-anchor="start" x="992" y="-2063.3" font-family="monospace" font-size="14.00">Shape</text>
<polygon fill="none" stroke="black" points="1090.5,-2056.5 1090.5,-2077.5 1295.5,-2077.5 1295.5,-2056.5 1090.5,-2056.5"/>
<text text-anchor="start" x="1184.5" y="-2063.3" font-family="monospace" font-size="14.00">()</text>
<polygon fill="none" stroke="black" points="935.5,-2035.5 935.5,-2056.5 1090.5,-2056.5 1090.5,-2035.5 935.5,-2035.5"/>
<text text-anchor="start" x="938.5" y="-2042.3" font-family="monospace" font-size="14.00">Overwrites Input 0</text>
<polygon fill="none" stroke="black" points="1090.5,-2035.5 1090.5,-2056.5 1295.5,-2056.5 1295.5,-2035.5 1090.5,-2035.5"/>
<text text-anchor="start" x="1143" y="-2042.3" font-family="monospace" font-size="14.00">Data On: CPU</text>
<polygon fill="none" stroke="black" points="935.5,-2014.5 935.5,-2035.5 1090.5,-2035.5 1090.5,-2014.5 935.5,-2014.5"/>
<text text-anchor="start" x="992" y="-2021.3" font-family="monospace" font-size="14.00">Value</text>
<polygon fill="none" stroke="black" points="1090.5,-2014.5 1090.5,-2035.5 1295.5,-2035.5 1295.5,-2014.5 1090.5,-2014.5"/>
<text text-anchor="start" x="1159.5" y="-2021.3" font-family="monospace" font-size="14.00">%!s(NIL)</text>
</g>
<!-- Node_0xc0000ed7a0&#45;&gt;Node_0xc0000ed5e0 -->
<g id="edge14" class="edge">
<title>Node_0xc0000ed7a0:anchor&#45;&gt;Node_0xc0000ed5e0:anchor</title>
<path fill="none" stroke="black" d="M1115.5,-2010.99C1115.5,-1974.04 1115.5,-1925.33 1115.5,-1886.42"/>
<polygon fill="black" stroke="black" points="1119,-1886.24 1115.5,-1876.24 1112,-1886.24 1119,-1886.24"/>
<text text-anchor="middle" x="1108" y="-1999.79" font-family="Times,serif" font-size="14.00"> 0 </text>
</g>
<!-- Node_0xc0000ed880 -->
<g id="node12" class="node">
<title>Node_0xc0000ed880</title>
<polygon fill="none" stroke="black" points="923.5,-2346.5 923.5,-2367.5 1086.5,-2367.5 1086.5,-2346.5 923.5,-2346.5"/>
<text text-anchor="start" x="1000.5" y="-2353.3" font-family="monospace" font-size="14.00">c</text>
<polygon fill="none" stroke="black" points="1086.5,-2346.5 1086.5,-2367.5 1307.5,-2367.5 1307.5,-2346.5 1086.5,-2346.5"/>
<text text-anchor="start" x="1089.5" y="-2353.3" font-family="monospace" font-size="14.00">÷ false(%b, %a) :: float64</text>
<polygon fill="none" stroke="black" points="923.5,-2325.5 923.5,-2346.5 1086.5,-2346.5 1086.5,-2325.5 923.5,-2325.5"/>
<text text-anchor="start" x="996.5" y="-2332.3" font-family="monospace" font-size="14.00">Op</text>
<polygon fill="none" stroke="black" points="1086.5,-2325.5 1086.5,-2346.5 1307.5,-2346.5 1307.5,-2325.5 1086.5,-2325.5"/>
<text text-anchor="start" x="1114" y="-2332.3" font-family="monospace" font-size="14.00">÷ false :: a → a → a</text>
<polygon fill="none" stroke="black" points="923.5,-2304.5 923.5,-2325.5 1086.5,-2325.5 1086.5,-2304.5 923.5,-2304.5"/>
<text text-anchor="start" x="984" y="-2311.3" font-family="monospace" font-size="14.00">Shape</text>
<polygon fill="none" stroke="black" points="1086.5,-2304.5 1086.5,-2325.5 1307.5,-2325.5 1307.5,-2304.5 1086.5,-2304.5"/>
<text text-anchor="start" x="1188.5" y="-2311.3" font-family="monospace" font-size="14.00">()</text>
<polygon fill="none" stroke="black" points="923.5,-2283.5 923.5,-2304.5 1086.5,-2304.5 1086.5,-2283.5 923.5,-2283.5"/>
<text text-anchor="start" x="926.5" y="-2290.3" font-family="monospace" font-size="14.00">Overwrites Input &#45;1</text>
<polygon fill="none" stroke="black" points="1086.5,-2283.5 1086.5,-2304.5 1307.5,-2304.5 1307.5,-2283.5 1086.5,-2283.5"/>
<text text-anchor="start" x="1147" y="-2290.3" font-family="monospace" font-size="14.00">Data On: CPU</text>
<polygon fill="none" stroke="black" points="923.5,-2262.5 923.5,-2283.5 1086.5,-2283.5 1086.5,-2262.5 923.5,-2262.5"/>
<text text-anchor="start" x="984" y="-2269.3" font-family="monospace" font-size="14.00">Value</text>
<polygon fill="none" stroke="black" points="1086.5,-2262.5 1086.5,-2283.5 1307.5,-2283.5 1307.5,-2262.5 1086.5,-2262.5"/>
<text text-anchor="start" x="1163.5" y="-2269.3" font-family="monospace" font-size="14.00">%!s(NIL)</text>
</g>
<!-- Node_0xc0000ed880&#45;&gt;Node_0xc0000ed7a0 -->
<g id="edge15" class="edge">
<title>Node_0xc0000ed880:anchor&#45;&gt;Node_0xc0000ed7a0:anchor</title>
<path fill="none" stroke="black" d="M1115.5,-2258.99C1115.5,-2222.04 1115.5,-2173.33 1115.5,-2134.42"/>
<polygon fill="black" stroke="black" points="1119,-2134.24 1115.5,-2124.24 1112,-2134.24 1119,-2134.24"/>
<text text-anchor="middle" x="1108" y="-2247.79" font-family="Times,serif" font-size="14.00"> 0 </text>
</g>
<!-- Node_0xc0000ed6c0 -->
<g id="node13" class="node">
<title>Node_0xc0000ed6c0</title>
<polygon fill="lightyellow" stroke="transparent" points="1426,-41.5 1426,-125.5 1835,-125.5 1835,-41.5 1426,-41.5"/>
<polygon fill="none" stroke="#00ff00" points="1426.5,-104.5 1426.5,-125.5 1589.5,-125.5 1589.5,-104.5 1426.5,-104.5"/>
<text text-anchor="start" x="1503.5" y="-111.3" font-family="monospace" font-size="14.00">a</text>
<polygon fill="none" stroke="#00ff00" points="1589.5,-104.5 1589.5,-125.5 1835.5,-125.5 1835.5,-104.5 1589.5,-104.5"/>
<text text-anchor="start" x="1592.5" y="-111.3" font-family="monospace" font-size="14.00">degrees of freedom :: float64</text>
<polygon fill="none" stroke="#00ff00" points="1426.5,-83.5 1426.5,-104.5 1589.5,-104.5 1589.5,-83.5 1426.5,-83.5"/>
<text text-anchor="start" x="1487" y="-90.3" font-family="monospace" font-size="14.00">Shape</text>
<polygon fill="none" stroke="#00ff00" points="1589.5,-83.5 1589.5,-104.5 1835.5,-104.5 1835.5,-83.5 1589.5,-83.5"/>
<text text-anchor="start" x="1704" y="-90.3" font-family="monospace" font-size="14.00">()</text>
<polygon fill="none" stroke="#00ff00" points="1426.5,-62.5 1426.5,-83.5 1589.5,-83.5 1589.5,-62.5 1426.5,-62.5"/>
<text text-anchor="start" x="1429.5" y="-69.3" font-family="monospace" font-size="14.00">Overwrites Input &#45;1</text>
<polygon fill="none" stroke="#00ff00" points="1589.5,-62.5 1589.5,-83.5 1835.5,-83.5 1835.5,-62.5 1589.5,-62.5"/>
<text text-anchor="start" x="1662.5" y="-69.3" font-family="monospace" font-size="14.00">Data On: CPU</text>
<polygon fill="none" stroke="#00ff00" points="1426.5,-41.5 1426.5,-62.5 1589.5,-62.5 1589.5,-41.5 1426.5,-41.5"/>
<text text-anchor="start" x="1487" y="-48.3" font-family="monospace" font-size="14.00">Value</text>
<polygon fill="none" stroke="#00ff00" points="1589.5,-41.5 1589.5,-62.5 1835.5,-62.5 1835.5,-41.5 1589.5,-41.5"/>
<text text-anchor="start" x="1667" y="-48.3" font-family="monospace" font-size="14.00">float64 &#160;&#45;1</text>
</g>
<!-- Node_0xc0000ed880&#45;&gt;Node_0xc0000ed6c0 -->
<g id="edge16" class="edge">
<title>Node_0xc0000ed880:anchor&#45;&gt;Node_0xc0000ed6c0:anchor</title>
<path fill="none" stroke="black" d="M1245.12,-2258.84C1397.68,-2183.56 1630.5,-2033.75 1630.5,-1820.5 1630.5,-1820.5 1630.5,-1820.5 1630.5,-578.5 1630.5,-419.32 1630.5,-231.3 1630.5,-139.92"/>
<polygon fill="black" stroke="black" points="1634,-139.79 1630.5,-129.79 1627,-139.79 1634,-139.79"/>
<text text-anchor="middle" x="1237.62" y="-2247.64" font-family="Times,serif" font-size="14.00"> 1 </text>
</g>
<!-- Node_0xc0000ed960 -->
<g id="node14" class="node">
<title>Node_0xc0000ed960</title>
<polygon fill="none" stroke="#ff0000" points="790.5,-2594.5 790.5,-2615.5 945.5,-2615.5 945.5,-2594.5 790.5,-2594.5"/>
<text text-anchor="start" x="863.5" y="-2601.3" font-family="monospace" font-size="14.00">d</text>
<polygon fill="none" stroke="#ff0000" points="945.5,-2594.5 945.5,-2615.5 1232.5,-2615.5 1232.5,-2594.5 945.5,-2594.5"/>
<text text-anchor="start" x="952.5" y="-2601.3" font-family="monospace" font-size="14.00">⊙ false(%5, %c) :: Matrix float64</text>
<polygon fill="none" stroke="#ff0000" points="790.5,-2573.5 790.5,-2594.5 945.5,-2594.5 945.5,-2573.5 790.5,-2573.5"/>
<text text-anchor="start" x="859.5" y="-2580.3" font-family="monospace" font-size="14.00">Op</text>
<polygon fill="none" stroke="#ff0000" points="945.5,-2573.5 945.5,-2594.5 1232.5,-2594.5 1232.5,-2573.5 945.5,-2573.5"/>
<text text-anchor="start" x="948.5" y="-2580.3" font-family="monospace" font-size="14.00">⊙ false :: Matrix a → a → Matrix a</text>
<polygon fill="none" stroke="#ff0000" points="790.5,-2552.5 790.5,-2573.5 945.5,-2573.5 945.5,-2552.5 790.5,-2552.5"/>
<text text-anchor="start" x="847" y="-2559.3" font-family="monospace" font-size="14.00">Shape</text>
<polygon fill="none" stroke="#ff0000" points="945.5,-2552.5 945.5,-2573.5 1232.5,-2573.5 1232.5,-2552.5 945.5,-2552.5"/>
<text text-anchor="start" x="1064" y="-2559.3" font-family="monospace" font-size="14.00">(3, 3)</text>
<polygon fill="none" stroke="#ff0000" points="790.5,-2531.5 790.5,-2552.5 945.5,-2552.5 945.5,-2531.5 790.5,-2531.5"/>
<text text-anchor="start" x="793.5" y="-2538.3" font-family="monospace" font-size="14.00">Overwrites Input 0</text>
<polygon fill="none" stroke="#ff0000" points="945.5,-2531.5 945.5,-2552.5 1232.5,-2552.5 1232.5,-2531.5 945.5,-2531.5"/>
<text text-anchor="start" x="1039" y="-2538.3" font-family="monospace" font-size="14.00">Data On: CPU</text>
<polygon fill="none" stroke="#ff0000" points="790.5,-2510.5 790.5,-2531.5 945.5,-2531.5 945.5,-2510.5 790.5,-2510.5"/>
<text text-anchor="start" x="847" y="-2517.3" font-family="monospace" font-size="14.00">Value</text>
<polygon fill="none" stroke="#ff0000" points="945.5,-2510.5 945.5,-2531.5 1232.5,-2531.5 1232.5,-2510.5 945.5,-2510.5"/>
<text text-anchor="start" x="1055.5" y="-2517.3" font-family="monospace" font-size="14.00">%!s(NIL)</text>
</g>
<!-- Node_0xc0000ed960&#45;&gt;Node_0xc0000ed180 -->
<g id="edge17" class="edge">
<title>Node_0xc0000ed960:anchor&#45;&gt;Node_0xc0000ed180:anchor</title>
<path fill="none" stroke="black" d="M966.38,-2506.68C900.18,-2418.96 784.5,-2240.99 784.5,-2068.5 784.5,-2068.5 784.5,-2068.5 784.5,-1322.5 784.5,-1167.93 815.7,-988.39 834.53,-894.09"/>
<polygon fill="black" stroke="black" points="837.99,-894.62 836.54,-884.13 831.13,-893.24 837.99,-894.62"/>
<text text-anchor="middle" x="958.88" y="-2495.48" font-family="Times,serif" font-size="14.00"> 0 </text>
</g>
<!-- Node_0xc0000ed960&#45;&gt;Node_0xc0000ed880 -->
<g id="edge18" class="edge">
<title>Node_0xc0000ed960:anchor&#45;&gt;Node_0xc0000ed880:anchor</title>
<path fill="none" stroke="black" d="M1034.97,-2506.99C1050.65,-2469.88 1071.36,-2420.92 1087.84,-2381.92"/>
<polygon fill="black" stroke="black" points="1091.27,-2382.81 1091.94,-2372.24 1084.82,-2380.08 1091.27,-2382.81"/>
<text text-anchor="middle" x="1027.47" y="-2495.79" font-family="Times,serif" font-size="14.00"> 1 </text>
</g>
<!-- outsideRoot -->
<!-- insideInputs -->
<!-- outsideRoot&#45;&gt;insideInputs -->
<!-- outsideExprG -->
<!-- outsideRoot&#45;&gt;outsideExprG -->
<!-- insideExprG -->
<!-- insideInputs&#45;&gt;insideExprG -->
<!-- outsideExprG&#45;&gt;insideExprG -->
</g>
</svg>
